<svg width="71" height="71" viewBox="0 0 71 71" fill="none" xmlns="http://www.w3.org/2000/svg">
<rect width="71" height="71" rx="20" fill="#F3F5FC"/>
<path fill-rule="evenodd" clip-rule="evenodd" d="M43.084 34.6529C43.0393 34.9311 42.9304 35.1959 42.7654 35.4275C42.6004 35.659 42.3836 35.8512 42.1313 35.9898C41.6231 36.3086 41.1785 36.468 40.7286 36.6274C39.7705 36.9488 38.7621 37.2702 37.6956 37.643C36.5708 38.0157 35.5624 38.3885 34.6626 38.6585C33.5404 39.0313 32.4738 39.3526 31.4602 39.7254C30.6976 40.0425 29.9812 40.4556 29.3297 40.9544C28.7237 41.4877 28.1949 42.0983 27.7576 42.7695C27.3077 43.515 27.0245 44.4766 27.0245 45.5975C27.0245 47.842 27.5856 49.5491 28.7104 50.6161C29.8325 51.7396 31.9127 52.2718 34.996 52.2718C38.1402 52.2718 40.2733 51.6856 41.4008 50.5107C42.5203 49.3357 43.0814 47.6826 43.0814 45.5487V34.6529H43.084ZM34.9987 11C40.5036 11 44.545 12.0155 47.1254 14.098C49.7085 16.1291 51 18.7412 51 21.8366V48.2148C51 49.2817 50.7777 50.4567 50.386 51.737C49.989 53.0225 49.2056 54.1949 47.9696 55.2592C46.7919 56.3313 45.1643 57.2389 43.0867 57.933C41.0091 58.6272 38.3149 59 35.0013 59C31.6931 59 28.9935 58.6272 26.9186 57.933C24.8437 57.2389 23.2134 56.3313 22.0356 55.2592C20.94 54.3001 20.1101 53.089 19.622 51.737C19.225 50.4592 19 49.2843 19 48.2174V44.001C19 41.7565 19.6167 39.674 20.8526 37.8563C22.0886 35.9898 23.8274 34.7095 26.0744 33.9073C27.1965 33.5345 28.488 33.1618 29.9463 32.681C31.4072 32.1976 32.7517 31.7169 34.1015 31.2927C35.4512 30.8633 36.629 30.434 37.6373 30.0586C38.2458 29.8221 38.8639 29.6094 39.49 29.421L40.501 28.9402C40.8979 28.7268 41.287 28.4055 41.6813 27.9787C42.073 27.5545 42.4091 27.0737 42.6923 26.5389C42.9915 25.9599 43.1457 25.3203 43.1423 24.6724V22.9627C43.1464 22.3361 43.011 21.716 42.7453 21.145C42.523 20.5023 42.073 19.9161 41.4564 19.3839C40.8397 18.8492 39.9955 18.4224 38.9871 18.0984C37.9761 17.7822 36.6316 17.6202 35.1125 17.6202C31.9683 17.6202 29.8907 18.2116 28.7686 19.4354C27.8158 20.5049 27.2547 21.8392 27.1436 23.3329C27.1436 23.6543 26.863 23.8677 26.5243 23.8677L19.6775 23.9757C19.5149 23.9764 19.3586 23.9146 19.2426 23.8039C19.1266 23.6931 19.0603 23.5423 19.0582 23.3844V21.8418C19.0582 20.3429 19.3414 18.9546 19.9581 17.6202C20.5774 16.2833 21.5328 15.165 22.8217 14.2009C24.1132 13.2419 25.7991 12.4423 27.8185 11.9076C29.7849 11.2648 32.1986 11 35.004 11H34.9987Z" fill="#0A3871"/>
</svg>
