<?xml version="1.0" encoding="UTF-8"?>
<!DOCTYPE svg PUBLIC "-//W3C//DTD SVG 1.1//EN" "http://www.w3.org/Graphics/SVG/1.1/DTD/svg11.dtd">
<!-- Creator: CorelDRAW X8 -->
<svg xmlns="http://www.w3.org/2000/svg" xml:space="preserve" width="247.764mm" height="53.3987mm" version="1.1" style="shape-rendering:geometricPrecision; text-rendering:geometricPrecision; image-rendering:optimizeQuality; fill-rule:evenodd; clip-rule:evenodd"
viewBox="0 0 22926 4941"
 xmlns:xlink="http://www.w3.org/1999/xlink">
 <defs>
  <style type="text/css">
   <![CDATA[
    .fil0 {fill:#257BE5;fill-rule:nonzero}
   ]]>
  </style>
 </defs>
 <g id="Capa_x0020_1">
  <metadata id="CorelCorpID_0Corel-Layer"/>
  <path class="fil0" d="M2421 4600c-103,-325 -207,-653 -310,-983 -103,-331 -206,-665 -309,-1001 319,-205 507,-542 507,-965 0,-166 0,-333 0,-500 0,-656 -452,-1085 -1156,-1083 -385,0 -770,1 -1153,2 0,812 0,1624 0,2436 0,811 0,1623 0,2435 245,-36 491,-73 736,-109 0,-328 0,-656 0,-984 0,-327 0,-655 0,-983 126,-11 254,-23 383,-34 89,315 178,628 268,940 89,309 179,619 268,927 255,-32 509,-65 766,-98zm-1685 -3851c126,-3 254,-6 383,-9 286,-7 451,149 451,421 0,179 0,358 0,537 0,273 -165,442 -451,461 -129,9 -257,17 -383,26 0,-240 0,-479 0,-718 0,-239 0,-478 0,-718zm3054 3757c708,-76 1183,-530 1183,-1146 0,-388 0,-776 0,-1164 0,-388 0,-776 0,-1165 0,-616 -475,-1031 -1183,-1031 -711,0 -1183,439 -1183,1090 0,411 0,821 0,1231 0,410 0,820 0,1231 0,651 472,1029 1183,954zm0 -626c-273,26 -445,-116 -445,-395 0,-402 0,-805 0,-1207 0,-403 0,-805 0,-1208 0,-279 172,-439 445,-444 270,-4 444,149 444,421 0,394 0,788 0,1182 0,394 0,788 0,1182 0,273 -174,444 -444,469zm3867 -3821c-103,436 -208,872 -309,1309 -101,439 -204,880 -305,1322 -108,-435 -216,-871 -321,-1309 -106,-439 -213,-879 -319,-1321 -348,0 -697,1 -1043,1 0,706 0,1413 0,2118 0,706 0,1413 0,2118 241,-21 482,-40 725,-56 0,-478 0,-956 0,-1433 0,-478 0,-956 0,-1434 114,475 229,947 344,1419 114,469 229,937 343,1402 172,-11 344,-22 516,-32 115,-474 229,-946 344,-1417 115,-470 229,-939 344,-1407 0,465 0,931 0,1396 0,466 0,931 0,1396 245,-11 491,-22 738,-33 0,-673 0,-1346 0,-2020 0,-673 0,-1346 0,-2020 -353,0 -706,1 -1057,1zm3121 4000c250,-1 499,-3 752,-4 -136,-665 -273,-1331 -406,-1998 -133,-666 -268,-1333 -401,-1999 -331,0 -661,0 -989,0 -135,669 -273,1341 -405,2012 -133,673 -269,1348 -402,2023 246,-6 491,-12 739,-19 52,-297 105,-595 160,-892 264,-5 527,-7 793,-9 53,296 106,591 159,886zm-856 -1464c49,-280 101,-560 149,-840 49,-280 101,-559 152,-839 48,279 98,559 147,838 48,279 100,558 151,837 -200,1 -399,1 -599,4zm1821 1462c241,4 481,6 724,10 0,-428 0,-855 0,-1283 0,-428 0,-855 0,-1283 161,429 326,858 486,1287 161,432 326,866 489,1301 259,8 518,17 779,25 0,-675 0,-1352 0,-2028 0,-675 0,-1351 0,-2028 -243,0 -484,0 -724,0 0,451 0,902 0,1354 0,451 0,902 0,1353 -159,-454 -314,-907 -470,-1359 -156,-450 -312,-899 -468,-1348 -273,0 -546,0 -816,0 0,666 0,1333 0,1999 0,667 0,1333 0,2000zm2927 77c246,13 491,25 739,38 0,-289 0,-578 0,-867 0,-289 0,-577 0,-867 346,11 694,24 1043,39 0,-199 0,-398 0,-597 -349,-11 -697,-21 -1043,-29 0,-201 0,-402 0,-602 0,-200 0,-401 0,-602 440,3 880,8 1323,13 0,-200 0,-400 0,-600 -688,0 -1376,-1 -2062,-1 0,679 0,1358 0,2037 0,680 0,1359 0,2038zm2275 137c683,55 1366,115 2052,181 0,-209 0,-418 0,-627 -438,-38 -876,-71 -1314,-104 0,-610 0,-1220 0,-1830 0,-610 0,-1220 0,-1830 -248,0 -493,0 -738,0 0,702 0,1404 0,2105 0,702 0,1404 0,2105zm2267 204c245,26 491,52 736,77 0,-747 0,-1496 0,-2243 0,-748 0,-1496 0,-2244 -245,-1 -491,-1 -736,-2 0,736 0,1471 0,2206 0,735 0,1471 0,2206zm3714 466c-160,-434 -320,-866 -479,-1292 -158,-423 -316,-842 -475,-1259 152,-378 306,-759 457,-1144 152,-389 307,-781 461,-1176 -257,-1 -512,-1 -766,-2 -92,254 -183,506 -273,756 -89,248 -179,496 -268,742 -97,-253 -193,-505 -289,-755 -96,-249 -193,-498 -289,-745 -266,0 -530,-1 -793,-1 149,365 301,734 449,1105 150,373 303,751 454,1131 -163,388 -325,771 -486,1152 -160,378 -321,751 -481,1122 254,31 509,62 765,94 99,-256 198,-513 296,-772 99,-259 197,-522 296,-785 103,282 209,566 312,852 103,286 208,575 314,866 263,37 529,74 795,111z"/>
 </g>
</svg>
